<?xml version="1.0" standalone="no"?>
<!DOCTYPE svg PUBLIC "-//W3C//DTD SVG 1.1//EN" "http://www.w3.org/Graphics/SVG/1.1/DTD/svg11.dtd" >
<svg xmlns="http://www.w3.org/2000/svg" xmlns:xlink="http://www.w3.org/1999/xlink" version="1.1">
<metadata></metadata>
<defs>
<font id="amaranthitalic" horiz-adv-x="1036" >
<font-face units-per-em="2048" ascent="1536" descent="-512" />
<missing-glyph horiz-adv-x="450" />
<glyph horiz-adv-x="0" />
<glyph unicode="&#xd;" horiz-adv-x="681" />
<glyph unicode=" "  horiz-adv-x="450" />
<glyph unicode="&#x09;" horiz-adv-x="450" />
<glyph unicode="&#xa0;" horiz-adv-x="450" />
<glyph unicode="!" horiz-adv-x="675" d="M115 121q0 72 46 122t122 50q70 0 105.5 -38t35.5 -105q0 -72 -47 -122.5t-123 -50.5q-68 0 -103.5 39t-35.5 105zM219 451l172 919h254l-229 -919h-197z" />
<glyph unicode="&#x22;" horiz-adv-x="790" d="M164 872l80 498h190l-110 -498h-160zM500 872l80 498h190l-111 -498h-159z" />
<glyph unicode="#" horiz-adv-x="1267" d="M41 295l51 158h201l98 317h-215l53 160h213l88 278h170l-88 -278h234l90 278h168l-88 -278h190l-51 -160h-190l-99 -317h205l-53 -158h-201l-92 -295h-168l92 295h-235l-92 -295h-170l92 295h-203zM461 453h235l101 317h-236z" />
<glyph unicode="$" horiz-adv-x="1087" d="M20 266l173 92q76 -152 217 -151q223 0 223 170q0 113 -121 186l-143 88q-84 51 -121 117t-37 162q0 133 93 222t251 110l31 159h162l-31 -159q195 -25 248 -193l-174 -94l-11 20q-10 20 -14 26.5t-18.5 23t-27.5 23.5t-37 13t-52 6q-80 0 -128 -36.5t-48 -94.5 q0 -96 94 -155l153 -94q168 -106 168 -281q0 -168 -107.5 -273.5t-279.5 -127.5l-37 -195h-159l35 197q-109 20 -189 82.5t-113 156.5z" />
<glyph unicode="%" horiz-adv-x="1732" d="M113 719q0 213 105.5 352t287.5 139q129 0 186.5 -70.5t57.5 -176.5q0 -209 -106 -349.5t-288 -140.5q-129 0 -186 69.5t-57 176.5zM313 709q0 -92 66 -93q70 0 120 119t50 238q0 94 -69.5 94t-118 -119t-48.5 -239zM354 0l768 1202h205l-770 -1202h-203zM942 240 q0 213 105.5 352t287.5 139q127 0 185.5 -70.5t58.5 -177.5q0 -209 -105.5 -349t-287.5 -140q-129 0 -186.5 68.5t-57.5 177.5zM1143 229q0 -51 15.5 -71.5t49.5 -20.5q70 0 120 119t50 238q0 94 -69.5 94t-117.5 -119t-48 -240z" />
<glyph unicode="&#x26;" horiz-adv-x="1134" d="M10 289q0 166 76 273.5t223 187.5q-16 49 -16 110q0 150 103.5 254.5t295.5 104.5q94 0 150.5 -44t99.5 -124l-143 -105q-39 82 -123 82q-72 0 -111 -42t-39 -107q0 -158 238 -437q57 72 135 187l150 -101q-72 -137 -150 -239q98 -106 154 -162l-133 -137 q-23 25 -49.5 50.5t-58.5 57t-50 49.5q-186 -160 -426 -159q-143 0 -234.5 82t-91.5 219zM256 342q0 -68 41 -111t117 -43q96 1 209 103q-168 176 -244 303q-123 -113 -123 -252z" />
<glyph unicode="'" horiz-adv-x="454" d="M164 872l80 498h190l-110 -498h-160z" />
<glyph unicode="(" horiz-adv-x="768" d="M113 281q0 352 164.5 678.5t455.5 527.5l96 -139q-229 -172 -360 -458t-131 -589q0 -197 57.5 -336t130.5 -217l-139 -125q-98 84 -186 260.5t-88 397.5z" />
<glyph unicode=")" horiz-adv-x="747" d="M-82 -238q231 172 361.5 457t130.5 590q0 197 -57.5 336t-131.5 217l141 125q98 -84 185.5 -260.5t87.5 -397.5q0 -350 -164 -677.5t-455 -528.5z" />
<glyph unicode="*" horiz-adv-x="874" d="M164 1077l67 160l201 -86l33 240l178 -19l-61 -221l227 90l45 -166l-252 -71l125 -197l-156 -98l-106 209l-160 -203l-131 114l186 179z" />
<glyph unicode="+" horiz-adv-x="1058" d="M113 522l34 178h293l60 314h188l-59 -314h295l-33 -178h-297l-62 -325h-186l62 325h-295z" />
<glyph unicode="," horiz-adv-x="507" d="M-123 -188q184 123 184 303q0 82 -6 135q45 37 140 37q109 0 108 -111q0 -139 -112.5 -276.5t-245.5 -200.5z" />
<glyph unicode="-" horiz-adv-x="757" d="M82 561l35 170h559l-33 -170h-561z" />
<glyph unicode="." horiz-adv-x="473" d="M-10 121q0 72 46 122t120 50q143 0 143 -143q0 -72 -47 -122.5t-123 -50.5q-68 0 -103.5 39t-35.5 105z" />
<glyph unicode="/" horiz-adv-x="821" d="M-162 -258l955 1751h235l-960 -1751h-230z" />
<glyph unicode="0" horiz-adv-x="1173" d="M82 367q0 254 68.5 460.5t216 338.5t352.5 132q184 0 278.5 -101t94.5 -292q0 -252 -69 -459.5t-216.5 -340t-351.5 -132.5q-184 0 -278.5 101.5t-94.5 292.5zM332 403q0 -252 155 -251q109 0 192 111.5t123 272t40 332.5q0 252 -156 252q-109 0 -191.5 -111.5 t-122.5 -272.5t-40 -333z" />
<glyph unicode="1" horiz-adv-x="770" d="M61 1032q92 27 148.5 47.5t142.5 72.5t170 130h176l-247 -1282h-238l197 1008q-162 -109 -279 -144z" />
<glyph unicode="2" horiz-adv-x="1021" d="M-10 0v186l329 312q231 219 287 288q76 100 76 201q0 131 -121 131q-72 0 -135 -22.5t-172 -77.5l-66 164q233 115 418 114q162 0 248 -71.5t86 -200.5q0 -63 -20.5 -125.5t-46 -108t-85 -113t-99.5 -105t-128 -121.5q-23 -23 -35 -33l-250 -232h539l-37 -186h-788z" />
<glyph unicode="3" horiz-adv-x="995" d="M-51 90l84 174q98 -53 159.5 -75.5t139.5 -22.5q115 0 189.5 73.5t74.5 202.5q0 76 -36 123t-103 47q-66 0 -199 -24l-33 160q33 12 91.5 30.5t89 29.5t75.5 29.5t68.5 34t49.5 38t36 49t10 57.5q0 39 -28.5 70.5t-77.5 31.5q-70 0 -129.5 -21.5t-169.5 -78.5l-68 164 q131 63 217 89.5t199 26.5q160 0 232.5 -69.5t72.5 -179.5q0 -100 -60.5 -184.5t-193.5 -112.5q102 -33 152.5 -113t50.5 -172q0 -207 -141.5 -343t-393.5 -136q-193 0 -358 102z" />
<glyph unicode="4" horiz-adv-x="1069" d="M33 358v134l508 806h231l-485 -761h307l80 417l248 43l-91 -460h166l-34 -179h-166l-70 -358h-235l67 358h-526z" />
<glyph unicode="5" horiz-adv-x="987" d="M-20 90l86 174q98 -53 159.5 -75.5t139.5 -22.5q264 0 264 276q0 203 -156 203q-100 0 -258 -57l-80 71l182 623h637l-34 -186h-441l-96 -310q70 41 156 41q170 0 251.5 -108.5t81.5 -253.5q0 -233 -136 -355t-398 -122q-188 0 -358 102z" />
<glyph unicode="6" horiz-adv-x="1058" d="M84 365q0 193 38 355.5t114.5 294.5t207.5 207.5t304 75.5q125 0 229 -55l-68 -162q-84 37 -204 37q-131 0 -216.5 -111.5t-123.5 -291.5q131 131 292.5 131t234.5 -84t73 -217q0 -256 -141.5 -414t-368.5 -158q-184 0 -277.5 101.5t-93.5 290.5zM332 403 q0 -252 155 -251q113 0 178.5 103t65.5 249q1 166 -151 166q-115 0 -240 -95q-8 -76 -8 -172z" />
<glyph unicode="7" horiz-adv-x="886" d="M33 0l585 1096h-493l-37 186h817v-147l-608 -1135h-264z" />
<glyph unicode="8" d="M41 242q0 262 315 432q-150 100 -149 235q0 168 127 278.5t332 110.5q145 0 232 -68.5t87 -178.5q0 -127 -72.5 -213t-193.5 -154q82 -51 132 -134t50 -171q0 -178 -148 -291t-347 -113q-166 0 -265.5 69t-99.5 198zM283 270q0 -57 45 -95t123 -38q82 0 142 62.5 t60 152.5q0 115 -133 234q-237 -136 -237 -316zM442 938q0 -104 111 -168q88 43 140 99.5t52 144.5q0 123 -120 123q-84 0 -133.5 -53.5t-49.5 -145.5z" />
<glyph unicode="9" horiz-adv-x="1060" d="M84 29l68 161q82 -37 202 -36q131 0 216 111.5t126 291.5q-135 -131 -293 -131q-162 0 -234.5 84t-72.5 217q0 256 141.5 413.5t368.5 157.5q184 0 277.5 -102t93.5 -291q0 -152 -22.5 -287t-74 -253.5t-128 -204.5t-188 -136.5t-251.5 -50.5q-125 1 -229 56zM330 768 q-1 -166 151 -166q68 0 135.5 33t100.5 59q10 98 10 174q0 252 -154 252q-113 0 -178 -103.5t-65 -248.5z" />
<glyph unicode=":" horiz-adv-x="614" d="M72 121q0 72 46 122t120 50q143 0 143 -143q0 -72 -47 -122.5t-123 -50.5q-68 0 -103.5 39t-35.5 105zM213 846q0 74 46 124t120 50q143 0 143 -146q0 -70 -47 -119.5t-123 -49.5q-68 0 -103.5 38.5t-35.5 102.5z" />
<glyph unicode=";" horiz-adv-x="618" d="M-63 -188q184 123 184 303q0 82 -6 135q45 37 139 37q109 0 108 -111q0 -139 -112.5 -276.5t-243.5 -200.5zM186 846q0 74 45 124t121 50q141 0 142 -146q0 -70 -46.5 -119.5t-121.5 -49.5q-70 0 -105 38.5t-35 102.5z" />
<glyph unicode="&#x3c;" horiz-adv-x="915" d="M51 528v158l746 340l65 -178l-416 -180q-78 -33 -131 -52q72 -31 115 -55l354 -186l-112 -189z" />
<glyph unicode="=" horiz-adv-x="1071" d="M123 354l37 181h717l-35 -181h-719zM193 713l36 180h717l-35 -180h-718z" />
<glyph unicode="&#x3e;" horiz-adv-x="915" d="M51 362l418 181q78 35 131 51q-72 31 -115 55l-356 189l115 188l618 -344v-158l-743 -338z" />
<glyph unicode="?" horiz-adv-x="907" d="M102 121q0 72 46 122t122 50q70 0 106 -38t36 -105q0 -72 -47.5 -122.5t-122.5 -50.5q-68 0 -104 39t-36 105zM209 1282q234 102 375 102q162 0 246.5 -71.5t84.5 -198.5q0 -66 -16 -121t-55 -105t-65.5 -78t-83 -77t-74.5 -65q-156 -145 -220 -287l-159 47 q18 94 87.5 196.5t141.5 172t130 147.5t58 131q0 131 -139 131q-31 0 -64.5 -9t-55 -18.5t-63.5 -30t-61 -28.5z" />
<glyph unicode="@" horiz-adv-x="1738" d="M41 201q0 328 147.5 573.5t383 366.5t518.5 121q256 0 421.5 -137.5t165.5 -395.5q0 -172 -54 -339t-165.5 -284.5t-253.5 -117.5q-160 0 -160 215q0 33 19 147l-35 -80q-123 -283 -369 -282q-131 0 -197.5 90t-66.5 219q0 274 149.5 455.5t409.5 181.5q109 0 220 -45 l124 -8l-67 -392q-35 -193 -35 -249q0 -90 51 -90q96 0 176 193.5t80 340.5q0 418 -465 418q-162 0 -310 -59.5t-263 -167t-182.5 -274.5t-67.5 -365q0 -203 99.5 -306.5t342.5 -103.5q70 0 157 19.5t138 37.5l52 19l38 -138q-215 -96 -413 -96q-121 0 -221.5 26.5 t-185.5 86t-133 166t-48 254.5zM637 299q0 -143 96 -143q86 0 172 160.5t121 324.5l27 125q-39 18 -105 18q-106 0 -180 -79.5t-102.5 -185t-28.5 -220.5z" />
<glyph unicode="A" horiz-adv-x="1167" d="M-80 39l748 1331h186l262 -1370h-250l-59 369h-459l-194 -385zM432 539h350q-39 244 -71 544q-150 -289 -279 -544z" />
<glyph unicode="B" horiz-adv-x="1126" d="M31 0l266 1378l188 -16q94 20 199 20q410 0 410 -299q0 -240 -254 -360q180 -76 180 -274q0 -207 -169 -329t-431 -122h-89t-92 1t-79 1h-60.5h-25.5h-43zM299 162h102q166 0 264.5 70.5t98.5 189.5q0 98 -51.5 149.5t-180.5 51.5h-145zM422 797h82q176 0 256 65.5 t80 171.5q0 185 -217 185q-74 0 -121 -9z" />
<glyph unicode="C" horiz-adv-x="1028" d="M128 786q46 172 133 309.5t228.5 219.5t315.5 82q239 0 276 -213l-182 -82q-29 117 -133 117t-188 -74t-133.5 -189.5t-75 -242.5t-25.5 -250q0 -311 258 -311q125 0 256 47l37 -156q-158 -70 -363 -70q-450 0 -450 451q0 190 46 362z" />
<glyph unicode="D" horiz-adv-x="1325" d="M31 0l266 1378l182 -14q152 33 314 33q450 0 450 -451q0 -217 -42 -383t-137 -297t-261 -200.5t-400 -69.5h-94t-87 1t-69.5 2t-50.5 1h-18h-53zM301 180h143q147 0 255 60.5t167.5 166t87 230.5t27.5 272q0 310 -258 310q-137 0 -225 -29z" />
<glyph unicode="E" d="M31 0l266 1370h788l-34 -172h-551l-76 -393h444l-37 -170h-440l-90 -463h567v-172h-837z" />
<glyph unicode="F" horiz-adv-x="956" d="M31 0l266 1370h788l-34 -172h-551l-78 -412h446l-37 -170h-444l-119 -616h-237z" />
<glyph unicode="G" horiz-adv-x="1216" d="M74 -332l84 182q12 -6 62 -27.5t76 -31.5t70 -25.5t81.5 -21.5t74.5 -6q92 0 163 49t87 121l55 262q-59 -92 -158.5 -144.5t-215.5 -52.5q-178 0 -274.5 119t-96.5 334q0 152 28.5 291t90 264t150.5 217t219 145.5t286 53.5q229 0 279 -201l-181 -82q-12 33 -25.5 51.5 t-49 36t-91.5 17.5q-113 0 -201.5 -74t-140 -190.5t-77 -242.5t-25.5 -249q0 -141 51 -226t158 -85q92 0 183 86t116 215l43 219h231l-143 -748q-33 -164 -164 -271.5t-323 -107.5q-176 0 -422 123z" />
<glyph unicode="H" horiz-adv-x="1325" d="M10 0l266 1370h236l-111 -565h545l111 565h235l-266 -1370h-235l122 635h-542l-125 -635h-236z" />
<glyph unicode="I" horiz-adv-x="565" d="M31 0l266 1370h238l-267 -1370h-237z" />
<glyph unicode="J" horiz-adv-x="567" d="M-236 -301q129 59 189.5 132t85.5 196l262 1343h236l-256 -1319q-23 -111 -60 -189.5t-98.5 -136t-119.5 -94.5t-159 -88z" />
<glyph unicode="K" horiz-adv-x="1148" d="M31 0l266 1370h240l-267 -1370h-239zM436 750l6 14q186 68 353.5 220.5t167.5 287.5q0 31 -13 71l213 48q27 -51 27 -123q0 -96 -50 -193.5t-127 -172.5t-156 -130t-146 -82q39 -166 158.5 -403.5t250.5 -392.5l-196 -105q-188 244 -283.5 442.5t-204.5 518.5z" />
<glyph unicode="L" horiz-adv-x="860" d="M41 0l266 1370h238l-236 -1198h490v-172h-758z" />
<glyph unicode="M" horiz-adv-x="1662" d="M20 29l330 1341h193l170 -846q33 -188 39 -231q14 25 38.5 73t46 87t40.5 71l497 846h191l-154 -1370h-242l78 522q14 98 74 391q-137 -268 -211 -385l-319 -528h-166l-117 522q-6 29 -74 389q-43 -311 -59 -383l-117 -534z" />
<glyph unicode="N" horiz-adv-x="1347" d="M31 29l254 1341h184l322 -696q20 -45 63 -145.5t57 -133.5q19 167 37 273l131 712l228 -37l-254 -1345h-183l-329 704q-39 80 -117 273q-16 -178 -35 -277l-131 -706z" />
<glyph unicode="O" horiz-adv-x="1368" d="M129 787q47 171 136 308.5t237 219.5t334 82q450 0 450 -451v-2q0 -190 -47 -361t-136 -308.5t-236.5 -219.5t-334.5 -82q-450 0 -450 451q0 192 47 363zM344 463q0 -311 258 -311q104 0 188 73.5t133.5 189t75 243.5t25.5 251q0 310 -258 310q-104 0 -188 -74 t-133.5 -189.5t-75 -242.5t-25.5 -250z" />
<glyph unicode="P" horiz-adv-x="1116" d="M31 0l266 1378l190 -16q94 20 199 20q408 0 408 -299q0 -248 -166 -393t-420 -145q-86 0 -135 4l-105 -549h-237zM408 725h51q190 0 285.5 81t95.5 228q0 185 -217 185q-74 0 -121 -9z" />
<glyph unicode="Q" horiz-adv-x="1363" d="M113 715q0 119 50 239.5t140 219t228.5 161t299.5 62.5q451 0 451 -453q0 -215 -71.5 -414.5t-190.5 -345t-274.5 -236.5t-319.5 -102q61 -176 252 -176q159 0 407 154l78 -180q-258 -172 -506 -172q-184 0 -310 95t-161 304l70 135q47 -10 90 -10q168 0 324.5 127 t253 340t96.5 446q0 309 -258 310q-162 0 -272.5 -158t-110.5 -334q0 -96 40 -135t134 -51l-18 -172q-20 -6 -76 -7q-143 0 -244.5 95.5t-101.5 257.5z" />
<glyph unicode="R" horiz-adv-x="1138" d="M31 0l266 1378l190 -16q94 20 199 20q408 0 408 -299q0 -193 -106.5 -305t-291.5 -151q47 -160 169 -371t251 -365l-192 -102q-180 229 -266.5 397t-174.5 424q-63 0 -98 2l-117 -612h-237zM418 776h41q193 0 287 58.5t94 199.5q0 185 -217 185q-74 0 -121 -9z" />
<glyph unicode="S" horiz-adv-x="1024" d="M-31 90l103 180q197 -118 311 -118h2q119 0 187.5 54t68.5 161q0 68 -30.5 113.5t-98.5 94.5l-154 115q-100 72 -145 143.5t-45 186.5q0 176 129 276.5t332 100.5q164 0 235.5 -68.5t98.5 -175.5l-172 -80l-13 33q-14 31 -21 41t-25.5 32.5t-44 31t-58.5 8.5 q-82 0 -139.5 -49.5t-57.5 -120.5q0 -68 30 -108t97 -89l164 -121q180 -135 180 -336q0 -199 -151.5 -311.5t-358.5 -112.5q-94 0 -184 22.5t-130 41t-110 55.5z" />
<glyph unicode="T" horiz-adv-x="931" d="M113 1198v172h960l-37 -172h-346l-231 -1198h-238l234 1198h-342z" />
<glyph unicode="U" horiz-adv-x="1335" d="M92 362q0 68 17 150l165 858h238l-164 -840q-12 -68 -12 -120q0 -123 62.5 -190.5t172.5 -67.5q129 0 214 102t118 276l164 840h238l-166 -858q-45 -236 -198 -382t-429 -146q-219 0 -319.5 102t-100.5 276z" />
<glyph unicode="V" horiz-adv-x="1167" d="M72 1370h252l122 -756q27 -172 41 -284q47 94 146 284l401 772l236 -55l-748 -1331h-188z" />
<glyph unicode="W" horiz-adv-x="1718" d="M92 1370h252l51 -758q6 -84 6 -256q41 121 107 256l354 758h209l62 -756q8 -121 8 -249q82 201 104 249l361 772l235 -55l-692 -1331h-188l-72 750q-8 96 -12 243q-51 -145 -95 -235l-370 -758h-189z" />
<glyph unicode="X" horiz-adv-x="1165" d="M-82 39l545 713l-270 618h253l146 -334q8 -18 26.5 -66t28.5 -73q45 72 94 137l263 357l210 -74l-460 -604l290 -713h-256l-163 410q-29 70 -58 155q-57 -88 -108 -155l-312 -426z" />
<glyph unicode="Y" horiz-adv-x="940" d="M82 1370h242l135 -530q147 350 459 563l143 -115q-233 -223 -320 -334q-219 -279 -260 -655q-10 -104 -10 -221v-78h-235v82q0 262 90 481z" />
<glyph unicode="Z" horiz-adv-x="1058" d="M-20 0v127l757 1071q-4 0 -31.5 -1t-35.5 -1h-463l33 174h829v-129l-762 -1071q16 0 50 1t55 1h481v-172h-913z" />
<glyph unicode="[" horiz-adv-x="768" d="M61 -381l355 1856h454l-34 -181h-238l-289 -1495h242l-33 -180h-457z" />
<glyph unicode="\" horiz-adv-x="827" d="M205 1493h215l305 -1751h-217z" />
<glyph unicode="]" horiz-adv-x="808" d="M-123 -381l35 180h238l284 1495h-237l32 181h457l-354 -1856h-455z" />
<glyph unicode="^" horiz-adv-x="1067" d="M92 672l479 700h166l217 -741l-219 -27l-96 397q-8 27 -31 154q-31 -86 -76 -156l-264 -419z" />
<glyph unicode="_" horiz-adv-x="991" d="M-29 -332l29 168h991l-30 -168h-990z" />
<glyph unicode="`" horiz-adv-x="980" d="M270 1452q53 82 158 125q41 -90 111.5 -186.5t122.5 -149.5l51 -51l-99 -92q-29 18 -73.5 49t-138 124t-132.5 181z" />
<glyph unicode="a" horiz-adv-x="1081" d="M61 322q0 301 154 499.5t422 198.5q131 0 244 -49l129 -8l-92 -478q-20 -109 -21 -190q0 -131 74 -242l-185 -73q-69 79 -69 199q0 42 14 167l-35 -82q-122 -280 -362 -280q-137 0 -205 98t-68 240zM305 313q0 -88 26 -124.5t79 -36.5q94 0 187 181t132 367l29 142 q-41 20 -117 20q-88 0 -155.5 -51t-105.5 -135t-56.5 -176t-18.5 -187z" />
<glyph unicode="b" horiz-adv-x="1052" d="M51 84l266 1360l232 41l-64 -342q-20 -109 -92 -332q117 209 326 209q137 0 204.5 -98.5t67.5 -239.5q0 -301 -153.5 -499.5t-421.5 -198.5q-184 0 -359 96zM295 160q53 -18 117 -19q86 0 153.5 52.5t105.5 135.5t57.5 175t19.5 186q0 88 -26 125t-79 37 q-94 0 -187.5 -174t-138.5 -404z" />
<glyph unicode="c" horiz-adv-x="833" d="M61 319q0 301 153 505t419 204q188 0 239 -197l-170 -73q-2 4 -9 21.5t-10 22.5t-10 18.5t-14.5 17.5t-17.5 12t-24.5 10t-30.5 2q-84 0 -150.5 -91t-98.5 -214t-32 -244q0 -170 146 -170q33 0 90 14.5t101 28t42 13.5l49 -148q-162 -74 -330 -74q-180 0 -261 97.5 t-81 244.5z" />
<glyph unicode="d" horiz-adv-x="1056" d="M61 322q0 301 154 499.5t422 198.5q78 0 156 -19l86 443l231 41l-192 -998q-20 -109 -21 -192q0 -131 74 -242l-185 -73q-69 79 -69 199q0 42 14 167l-35 -82q-123 -280 -360 -280h-2q-137 0 -205 98t-68 240zM305 313q0 -88 26 -124.5t79 -36.5q94 0 187 181t132 367 l29 142q-41 20 -117 20q-88 0 -155.5 -51t-105.5 -135t-56.5 -176t-18.5 -187z" />
<glyph unicode="e" horiz-adv-x="937" d="M61 319q0 303 153 506t419 203q295 0 295 -221q0 -176 -174 -292t-451 -130q-2 -25 -2 -72q0 -170 150 -170q47 0 124.5 20.5t133.5 41.5l53 22l47 -147q-207 -102 -406 -103q-180 0 -261 97.5t-81 244.5zM328 532q170 10 269 84t99 156q0 98 -110 98q-90 0 -157 -96 t-101 -242z" />
<glyph unicode="f" horiz-adv-x="688" d="M-205 -301q143 66 211 134.5t92 193.5l158 811h-178v166h227q-45 66 -45 176q0 143 107.5 221t269.5 78q106 0 162.5 -51.5t83.5 -145.5l-170 -74q-29 104 -103 105q-135 0 -135 -152q0 -80 23 -157h239l-26 -166h-232l-153 -787q-20 -109 -59.5 -187.5t-106 -138 t-123.5 -94t-162 -88.5z" />
<glyph unicode="g" horiz-adv-x="1081" d="M61 322q0 301 154 499.5t422 198.5q121 0 252 -49l119 -8q-113 -514 -113 -664q0 -70 16.5 -181.5t16.5 -172.5q0 -215 -111.5 -307.5t-322.5 -92.5q-164 0 -420 123l80 172q4 -2 62 -26.5t79.5 -31.5t69 -23.5t85 -22.5t72.5 -6q92 0 147.5 60t55.5 151q0 14 -4 88.5 t-4 154.5q0 18 3 45l7 63t6 58l-39 -86q-123 -280 -358 -280h-2q-137 0 -205 98t-68 240zM305 313q1 -161 103 -161q100 0 199.5 202.5t144.5 452.5l6 35q-59 20 -117 20q-88 0 -155.5 -51t-105.5 -135t-56.5 -176t-18.5 -187z" />
<glyph unicode="h" horiz-adv-x="1107" d="M51 0l283 1444l231 41l-63 -342q-33 -170 -117 -404q119 281 381 281q131 0 195.5 -65.5t64.5 -184.5q0 -115 -66.5 -307.5t-66.5 -265.5q0 -125 16 -197h-227q-8 45 -8 123q0 111 59.5 311.5t59.5 284.5q0 117 -111 117q-104 0 -203.5 -163t-134.5 -345l-63 -328h-230z " />
<glyph unicode="i" horiz-adv-x="559" d="M72 162q0 29 6 59l155 783h226l-148 -762q-4 -25 -4 -33q0 -51 35 -51q72 0 104 16v-147q-75 -37 -184 -37q-90 0 -140 46t-50 126zM260 1321q0 66 42 111t110 45q127 0 127 -134q0 -61 -42 -106t-110 -45q-63 0 -95 36t-32 93z" />
<glyph unicode="j" horiz-adv-x="497" d="M-266 -301q143 66 210.5 134.5t92.5 193.5l192 977h224l-189 -953q-41 -203 -143.5 -304t-306.5 -204zM264 1321q0 66 41 111t109 45q127 0 127 -134q0 -63 -42 -107t-110 -44q-125 0 -125 129z" />
<glyph unicode="k" horiz-adv-x="1085" d="M51 0l283 1444l231 41l-63 -344q-8 -39 -23.5 -95.5t-38 -131t-32.5 -111.5q135 217 342 217q123 0 198.5 -60.5t75.5 -175.5q0 -70 -29.5 -130t-73.5 -98t-87 -65.5t-72 -39.5l-31 -13q49 -158 124 -281.5t198 -265.5l-183 -102q-281 258 -395 703l2 20q27 6 68 21.5 t100.5 44t99 72.5t39.5 95q0 109 -102 109q-68 0 -127 -55.5t-101 -142.5t-69 -171t-43 -166l-61 -319h-230z" />
<glyph unicode="l" horiz-adv-x="569" d="M61 162q0 31 7 57l239 1225l232 41l-238 -1243q-4 -25 -4 -33q0 -51 55 -51q66 0 115 16v-147q-88 -37 -215 -37q-94 0 -142.5 46t-48.5 126z" />
<glyph unicode="m" horiz-adv-x="1662" d="M72 0l104 516q23 111 23 203q0 145 -52 231l187 74q53 -63 53 -174q0 -4 -18 -188l30 77q55 137 145.5 209t203.5 72q117 0 181 -62.5t68 -171.5q115 233 326 234q127 0 192.5 -66.5t65.5 -183.5q0 -115 -66.5 -307.5t-66.5 -265.5q0 -115 18 -197h-229q-8 45 -8 123 q0 111 59.5 311.5t59.5 284.5q0 117 -99 117q-88 0 -178 -146.5t-123 -316.5l-71 -373h-230l103 516q24 116 24 197v6q0 117 -98 117q-88 0 -179 -146.5t-124 -318.5l-72 -371h-229z" />
<glyph unicode="n" horiz-adv-x="1128" d="M72 0l104 516q23 111 23 203q0 145 -52 231l187 74q53 -63 53 -174q0 -25 -18 -193l34 82q123 281 383 281q131 0 196 -65.5t65 -184.5q0 -115 -67 -307.5t-67 -265.5q0 -113 17 -197h-228q-8 45 -8 123q0 111 59.5 311.5t59.5 284.5q0 117 -111 117q-104 0 -203.5 -163 t-133.5 -347l-64 -326h-229z" />
<glyph unicode="o" d="M61 319q0 303 153 506t419 203q180 0 261 -97t81 -245q0 -305 -151.5 -507t-420.5 -202q-180 0 -261 97.5t-81 244.5zM305 305q0 -170 146 -170q84 0 151.5 96.5t98 223.5t30.5 245q0 170 -145 170q-84 0 -151.5 -95t-98.5 -222t-31 -248z" />
<glyph unicode="p" horiz-adv-x="1095" d="M-10 -455l188 971q23 111 23 203q0 145 -51 231l186 74q53 -63 53 -174q0 -63 -16 -172l26 59q123 283 363 283q137 0 204.5 -98.5t67.5 -239.5q0 -301 -153.5 -499.5t-421.5 -198.5q-72 0 -156 18l-82 -416zM334 162q59 -20 121 -21q86 0 153.5 52.5t105.5 135.5 t57.5 175t19.5 186q0 88 -26 125t-79 37q-195 0 -342 -645z" />
<glyph unicode="q" horiz-adv-x="1060" d="M61 322q0 301 154 499.5t422 198.5q121 0 252 -49l121 -8l-13 -45l-268 -1332l-229 -41l61 316q18 100 86 309q-113 -186 -313 -186q-137 0 -205 98.5t-68 239.5zM305 313q0 -88 26 -124.5t79 -36.5q88 0 181 158.5t132 367.5l31 166q-59 18 -113 18q-88 0 -155.5 -51 t-105.5 -135t-56.5 -176t-18.5 -187z" />
<glyph unicode="r" horiz-adv-x="774" d="M72 0l104 516q23 111 23 203q0 145 -52 231l187 74q53 -63 53 -174q0 -4 -18 -195q43 188 113.5 277.5t183.5 89.5q125 0 180 -84l-119 -190q-60 65 -129 65h-2q-53 0 -106.5 -91t-90.5 -220l-98 -502h-229z" />
<glyph unicode="s" horiz-adv-x="849" d="M-10 76l90 162q150 -94 252 -95q74 0 113.5 33t39.5 84q0 63 -32.5 99t-92.5 69l-51 27q-47 25 -74.5 45t-59.5 78.5t-32 140.5q0 135 100.5 222t282.5 87q119 0 186.5 -54t84.5 -140l-170 -68q-2 6 -8.5 21.5t-9.5 22.5t-9 19.5t-13 17.5t-18.5 12t-26 10t-32.5 3 q-63 0 -96 -35.5t-33 -82.5q0 -88 111 -148l59 -33q84 -45 127 -102t43 -172q0 -139 -103.5 -230.5t-291.5 -91.5q-78 0 -162 25t-129 49z" />
<glyph unicode="t" horiz-adv-x="743" d="M102 838v166h205l90 256l195 43l-60 -299h230l-29 -166h-233l-115 -605q-4 -25 -4 -30q0 -29 17.5 -40t60.5 -11q33 0 77 8t70 16l27 10v-153q-115 -49 -260 -49q-227 0 -228 172q0 27 7 57l124 625h-174z" />
<glyph unicode="u" horiz-adv-x="1118" d="M72 233q0 111 67.5 304.5t67.5 287.5q0 100 -12 144l194 49q39 -80 39 -207q0 -96 -61.5 -267t-61.5 -259q0 -117 111 -117q104 0 203.5 163t134.5 347l63 326h230l-109 -517q-23 -111 -23 -190q0 -133 76 -244l-186 -73q-70 80 -70 202q0 43 15 164l-35 -82 q-123 -280 -381 -280h-2q-131 0 -195.5 65.5t-64.5 183.5z" />
<glyph unicode="v" horiz-adv-x="1075" d="M92 217q0 59 19 170l118 617h224l-117 -611q-14 -86 -14 -123q0 -57 29.5 -92t82.5 -35q90 0 177 112t138.5 270.5t51.5 299.5q-1 101 -13 144l197 49q39 -80 39 -207q0 -201 -80 -395.5t-213 -306.5q-80 -68 -165 -96.5t-210 -28.5q-264 0 -264 233z" />
<glyph unicode="w" horiz-adv-x="1566" d="M92 217q0 59 19 170l118 617h224l-117 -611q-14 -86 -14 -123q0 -57 29.5 -92t82.5 -35q88 0 162 114t110.5 268.5t36.5 299.5q0 100 -12 144l197 49q39 -80 39 -207q0 -303 -154 -541v-7q-1 -52 27 -85q30 -35 84 -35q90 0 177 112t139 270.5t52 299.5q0 101 -12 144 l197 49q36 -80 36 -200v-7q0 -201 -78.5 -397.5t-211.5 -307.5q-144 -122 -354 -122h-3q-152 0 -213 116q-142 -116 -288 -116h-3q-270 0 -270 233z" />
<glyph unicode="x" horiz-adv-x="958" d="M-113 0l475 535l-229 469h242l98 -199q23 -47 62 -139q63 61 124 141q49 70 50 102q0 27 -9 60l195 49l2 -4q2 -4 5 -12.5t7 -20.5t6.5 -28.5t2.5 -34.5q0 -72 -50 -148q-63 -98 -243 -264l225 -506h-244l-123 264l-37 88q-61 -88 -86 -114l-210 -238h-263z" />
<glyph unicode="y" horiz-adv-x="1118" d="M72 233q0 111 66.5 304.5t66.5 287.5q0 96 -10 144l194 49q39 -80 39 -207q0 -96 -61.5 -267t-61.5 -259q0 -117 111 -117q102 0 202.5 163t135.5 347l63 326h230l-89 -404q-45 -229 -45 -301q0 -70 16.5 -181.5t16.5 -172.5q0 -215 -111.5 -307.5t-322.5 -92.5 q-164 0 -420 123l80 172q4 -2 62.5 -26.5t80 -31.5t68.5 -23.5t85 -22.5t73 -6q92 0 147 60t55 151q0 14 -4 88.5t-4 154.5q0 29 8.5 95.5t8.5 70.5l-39 -86q-119 -280 -379 -280h-2q-131 0 -195.5 65.5t-64.5 183.5z" />
<glyph unicode="z" horiz-adv-x="817" d="M-41 0v143l571 697q-117 -6 -247 -6h-146v170h660v-140l-559 -698q49 4 65 4q45 0 129 -8t121 -8q96 0 184 53l51 -172q-102 -63 -233 -64q-82 0 -238.5 14.5t-240.5 14.5h-117z" />
<glyph unicode="{" horiz-adv-x="757" d="M51 -193q1 14 17 80l92 351q12 41 12 69q0 133 -111 152v159q80 16 138.5 70.5t70.5 142.5l52 416q14 106 101 171t222 65q57 0 139 -17l-34 -184q-59 23 -99 23q-49 0 -76.5 -29t-31.5 -62l-41 -354q-12 -104 -63.5 -183t-172.5 -140q133 -66 133 -172q0 -49 -22 -140 l-88 -342q-4 -20 -4 -26q0 -35 22.5 -55.5t57.5 -20.5q37 0 102 20l-37 -182q-74 -12 -133 -12q-246 0 -246 200z" />
<glyph unicode="|" horiz-adv-x="673" d="M41 -258l342 1751h209l-342 -1751h-209z" />
<glyph unicode="}" horiz-adv-x="753" d="M-143 -377l34 184q59 -23 99 -22q49 0 76.5 28.5t31.5 61.5l41 354q12 104 63.5 183.5t172.5 140.5q-133 66 -133 172q0 49 22 139l88 342q4 20 4 27q0 35 -22.5 55.5t-57.5 20.5q-37 0 -102 -21l37 182q74 12 133 13q246 0 246 -201q-1 -14 -17 -80l-92 -350 q-12 -41 -12 -70q0 -135 111 -153v-158q-80 -16 -138.5 -70.5t-70.5 -142.5l-52 -416q-14 -106 -101 -170.5t-222 -64.5q-57 0 -139 16z" />
<glyph unicode="~" horiz-adv-x="1030" d="M92 627q135 174 285 174q80 0 163 -61.5t140 -61.5q37 0 66.5 12t48 26.5t61.5 55.5l82 -92q-137 -172 -285 -172q-80 0 -162.5 61.5t-140.5 61.5q-12 0 -22.5 -1t-19.5 -2t-18 -5.5t-15.5 -6.5t-16.5 -9t-14 -9t-16.5 -13.5t-15.5 -14.5t-18.5 -16t-19.5 -17z" />
<glyph unicode="&#xa1;" horiz-adv-x="675" d="M33 -373l229 920h197l-172 -920h-254zM254 848q0 72 47 122t123 50q68 0 103.5 -39t35.5 -104q0 -72 -46 -122t-122 -50q-70 0 -105.5 37.5t-35.5 105.5z" />
<glyph unicode="&#xa2;" horiz-adv-x="1064" d="M113 336q0 270 128.5 455.5t333.5 214.5l29 180h156l-29 -178q184 -4 232 -179l-172 -75q-2 4 -10.5 25.5t-12.5 27.5t-13.5 20.5t-20.5 20.5t-25 8l-109 -690q68 10 168 76l63 -148q-86 -80 -256 -96l-36 -238h-156l37 236q-162 10 -234.5 105.5t-72.5 234.5zM356 330 q0 -135 90 -162l103 672q-98 -47 -145.5 -193.5t-47.5 -316.5z" />
<glyph unicode="&#xa3;" horiz-adv-x="1216" d="M82 133q14 8 35.5 24.5t53.5 58.5t44 93l53 207h-131l37 184h145l48 179q53 199 181 311.5t324 112.5q287 0 314 -244l-174 -78q-12 47 -23.5 73.5t-46.5 50t-92 23.5q-176 0 -242 -233l-57 -195h362l-65 -184h-352l-23 -82q-51 -172 -154 -278q76 14 146 14q45 0 128 -8 t120 -8q96 0 184 53l51 -172q-102 -63 -233 -64q-88 0 -257 14.5t-261 14.5q-20 0 -70 -4z" />
<glyph unicode="&#xa4;" horiz-adv-x="1329" d="M20 121l205 166q-41 78 -41 180q0 242 166 401l-143 176l153 109l127 -188q121 55 240 55q127 0 215 -53l199 186l116 -131l-206 -166q43 -76 43 -180q0 -248 -168 -402l147 -176l-155 -108l-130 188q-111 -55 -237.5 -55t-216.5 53l-197 -186zM358 508q1 -232 222 -232 q135 0 237.5 106.5t102.5 252.5q0 231 -222 231q-135 0 -237.5 -106.5t-102.5 -251.5z" />
<glyph unicode="&#xa5;" horiz-adv-x="1114" d="M92 211l35 180h233l25 127h-233l36 180h154l-207 584h236l161 -561l398 577l184 -90l-377 -510h162l-35 -180h-243l-25 -127h244l-35 -180h-244l-39 -211h-235l39 211h-234z" />
<glyph unicode="&#xa6;" horiz-adv-x="669" d="M41 -258l147 766h209l-149 -766h-207zM231 723l150 770h207l-148 -770h-209z" />
<glyph unicode="&#xa7;" horiz-adv-x="1040" d="M61 436q0 137 82 229.5t197 139.5q-43 74 -43 153q0 147 115.5 253t279.5 106q117 0 205 -78l-92 -147q-66 53 -133 53q-63 0 -100 -35t-37 -98q0 -51 40.5 -103.5t98 -99.5t115 -98.5t98.5 -122t41 -150.5q0 -139 -83 -231t-200 -137q45 -80 45 -154 q0 -147 -114.5 -252.5t-278.5 -105.5q-117 0 -205 77l92 148q66 -53 133 -53q63 0 100.5 34.5t37.5 98.5q0 51 -41 103t-98.5 99.5t-115 98.5t-98.5 121.5t-41 150.5zM299 502q0 -39 25.5 -82t52 -70.5t85 -81t83.5 -75.5q145 51 145 180q0 39 -25.5 81t-53 69.5t-85 79.5 t-84.5 77q-143 -49 -143 -178z" />
<glyph unicode="&#xa8;" horiz-adv-x="978" d="M170 1272q0 57 37 98t96 41q117 0 117 -121q0 -55 -38 -95t-97 -40q-115 0 -115 117zM557 1272q0 57 37 98t98 41q115 0 115 -121q0 -55 -38 -95t-97 -40q-115 0 -115 117z" />
<glyph unicode="&#xa9;" horiz-adv-x="1550" d="M72 535q0 375 237.5 622.5t605.5 247.5q260 0 412 -149.5t152 -397.5q0 -373 -239 -621.5t-607 -248.5q-258 0 -409.5 150.5t-151.5 396.5zM246 584q0 -207 109.5 -327t312.5 -120q246 0 439 191.5t193 482.5q0 205 -108 323.5t-313 118.5q-154 0 -298.5 -81.5 t-239.5 -238.5t-95 -349zM475 559q0 227 118 392t316 165q59 0 103.5 -30.5t58.5 -69.5l-115 -101q-31 51 -94 52q-88 0 -142 -120t-54 -249q0 -162 110 -162q68 0 125 31l37 -125q-113 -49 -215 -49q-248 0 -248 266z" />
<glyph unicode="&#xaa;" horiz-adv-x="847" d="M123 879q0 209 107.5 346t293.5 137q86 0 168 -33l103 -4l-66 -342q-14 -74 -14 -121q0 -82 61 -172l-162 -63q-59 68 -59 155q0 10 2 58q-33 -98 -98 -152.5t-135 -54.5q-100 0 -150.5 70.5t-50.5 175.5zM324 874q0 -90 51 -90q68 0 125 114t78 230l14 80q-23 10 -64 11 q-102 0 -153 -106.5t-51 -238.5z" />
<glyph unicode="&#xab;" horiz-adv-x="1169" d="M72 502q51 55 121.5 122.5t135 123t120 101.5t89 73.5t31.5 25.5l95 -119l-324 -329q18 -29 99 -161t116 -187l-125 -97q-236 246 -358 447zM508 502q51 55 120.5 122.5t133 123t119 101.5t89.5 73.5t31 25.5l97 -119l-326 -329l217 -348l-125 -97q-233 246 -356 447z " />
<glyph unicode="&#xac;" horiz-adv-x="1054" d="M102 631l35 178h813l-80 -436h-170l48 258h-646z" />
<glyph unicode="&#xad;" horiz-adv-x="778" d="M92 569l35 168h559l-33 -168h-561z" />
<glyph unicode="&#xae;" horiz-adv-x="1187" d="M154 823q0 238 157.5 410t407.5 172q174 0 275.5 -100.5t101.5 -268.5q0 -238 -158 -409.5t-408 -171.5q-174 0 -275 100t-101 268zM287 854q0 -125 74.5 -204t195.5 -79q164 0 285 131.5t121 303.5q0 125 -73 203.5t-198 78.5q-164 0 -284.5 -131t-120.5 -303zM410 666 l100 528l70 -10q6 0 36.5 3t42.5 3q156 0 156 -115q0 -102 -127 -162q25 -91 103 -208l-82 -58q-61 98 -113 242q-12 -2 -39 -2l-41 -221h-106zM565 948q25 0 49 4q90 23 91 105q0 29 -20.5 48t-53.5 19l-31 2z" />
<glyph unicode="&#xaf;" horiz-adv-x="980" d="M158 1227l26 170h639l-26 -170h-639z" />
<glyph unicode="&#xb0;" horiz-adv-x="509" d="M102 1178q0 117 80 204.5t203 87.5q84 0 134 -51t50 -133q0 -117 -79.5 -205t-200.5 -88q-86 0 -136.5 51.5t-50.5 133.5zM229 1198q0 -88 84 -88q57 0 93 46t36 108q0 90 -82 90q-57 0 -94 -46t-37 -110z" />
<glyph unicode="&#xb1;" horiz-adv-x="1148" d="M113 66l34 180h293l54 276h-293l35 178h290l62 314h186l-59 -314h301l-35 -178h-301l-51 -276h295l-33 -180h-778z" />
<glyph unicode="&#xb2;" horiz-adv-x="667" d="M61 645v150l203 174q100 84 133 122.5t33 79.5q0 53 -45 54q-16 0 -37.5 -6.5t-35 -11.5t-50.5 -23.5t-51 -24.5l-49 141q145 70 248 70q96 0 156.5 -44t60.5 -120q0 -47 -16.5 -89t-58.5 -89t-71.5 -73.5t-101.5 -86.5l-88 -73h252l-29 -150h-453z" />
<glyph unicode="&#xb3;" horiz-adv-x="686" d="M61 707l62 122q113 -59 166 -59q51 0 86 34t35 95q0 68 -58 68q-35 0 -102 -13l-43 123q27 8 67.5 18.5t64 17.5t48.5 17.5t36 28t11 39.5q0 29 -37 29q-41 0 -166 -68l-59 139q143 72 250 72q96 0 148.5 -45t52.5 -108q0 -51 -37 -96.5t-109 -63.5q119 -39 119 -148 q0 -115 -89 -192.5t-235 -77.5q-107 0 -211 68z" />
<glyph unicode="&#xb4;" horiz-adv-x="980" d="M248 1202q195 258 358 375q102 -70 127 -141q-70 -45 -167 -130t-160 -147l-64 -63z" />
<glyph unicode="&#xb5;" horiz-adv-x="1148" d="M-31 -455l281 1459h225l-127 -656q-6 -31 -6 -53q0 -63 30.5 -95t73.5 -32q102 0 203 163t135 347l64 326h227l-108 -517q-23 -111 -23 -190q0 -133 76 -244l-184 -73q-72 82 -72 202q0 2 14 164l-35 -80q-61 -141 -127.5 -211.5t-179.5 -70.5q-51 0 -96 27.5t-64 70.5 v-6q0 -6 -1 -18.5t-2 -29t-2 -37t-4 -41t-6 -45t-7 -44.5l-53 -275z" />
<glyph unicode="&#xb6;" horiz-adv-x="1130" d="M123 842q0 236 146.5 377t396.5 151l-160 -848q-190 0 -286.5 84t-96.5 236zM297 -301q143 66 212 134.5t91 193.5l254 1343h236l-252 -1321q-16 -86 -50 -155.5t-70 -115.5t-99.5 -92t-110.5 -73t-131 -70z" />
<glyph unicode="&#xb7;" horiz-adv-x="493" d="M92 637q0 72 46 122t122 50q70 0 105.5 -38t35.5 -105q0 -72 -47 -122t-121 -50q-70 0 -105.5 38.5t-35.5 104.5z" />
<glyph unicode="&#xb8;" horiz-adv-x="983" d="M268 -391l60 112q74 -47 137 -47q100 0 100 56q0 27 -22.5 46t-49 29.5t-49 32t-22.5 51.5q0 37 51 117h131q-31 -31 -31 -74q0 -18 24 -37.5t52.5 -34t52 -43t23.5 -65.5q0 -104 -75 -152.5t-185.5 -48.5t-196.5 58z" />
<glyph unicode="&#xb9;" horiz-adv-x="536" d="M82 1227q154 41 258 137h135l-133 -717h-176l96 514q-74 -55 -121 -69z" />
<glyph unicode="&#xba;" horiz-adv-x="851" d="M123 877q0 213 106.5 352t292.5 139q131 0 189.5 -70.5t58.5 -177.5q0 -209 -106.5 -349t-292.5 -140q-131 0 -189.5 69.5t-58.5 176.5zM324 866q-1 -92 77 -92q74 0 121 117t47 239q0 94 -80 95q-74 0 -119.5 -117t-45.5 -242z" />
<glyph unicode="&#xbb;" horiz-adv-x="1169" d="M74 174l321 328l-215 350l125 96q236 -246 359 -446q-51 -55 -122 -123t-134.5 -123t-119 -101t-89 -74t-31.5 -26zM506 174l323 328q-111 180 -213 350l123 96q236 -246 359 -446q-39 -41 -87 -88t-94.5 -89t-93.5 -83t-87 -75t-70.5 -59.5t-47.5 -37.5l-16 -15z" />
<glyph unicode="&#xbc;" horiz-adv-x="1615" d="M166 1061q154 41 258 137h135l-133 -717h-176l96 514q-74 -55 -121 -69zM236 0l768 1202h204l-770 -1202h-202zM844 172v113l243 434h195l-233 -391h137l63 202l150 33l-45 -235h86l-33 -156h-82l-31 -172h-178l35 172h-307z" />
<glyph unicode="&#xbd;" horiz-adv-x="1613" d="M166 1061q154 41 258 137h135l-133 -717h-176l96 514q-74 -55 -121 -69zM238 0l768 1202h204l-770 -1202h-202zM893 0v150l203 174q100 84 133 122.5t33 79.5q0 53 -48 54q-14 0 -27 -3.5t-31.5 -10.5t-31 -12t-40.5 -19.5t-42 -20.5l-51 141q145 70 250 70 q96 0 155.5 -44t59.5 -120q0 -47 -16.5 -89t-58.5 -89t-71.5 -73.5t-101.5 -86.5l-88 -73h254l-28 -150h-453z" />
<glyph unicode="&#xbe;" horiz-adv-x="1734" d="M115 543l61 125q113 -59 166 -60q51 0 85 34t34 93q0 68 -55 68q-45 0 -103 -10l-43 120q27 8 68 18.5t63.5 17.5t47 18.5t35.5 28t11 38.5q0 29 -34 29q-41 0 -166 -68l-60 140q144 71 250 71q96 0 148.5 -44t52.5 -109q0 -51 -37 -96.5t-109 -63.5q119 -39 119 -148 q0 -115 -89 -192.5t-234 -77.5q-106 0 -211 68zM352 0l768 1202h207l-770 -1202h-205zM963 172v113l243 434h193l-234 -391h140l63 202l148 33l-46 -235h86l-32 -156h-82l-31 -172h-176l33 172h-305z" />
<glyph unicode="&#xbf;" horiz-adv-x="909" d="M-8 -119q0 66 16.5 121t55 105.5t65.5 78t83 76.5t75 66q156 145 219 286l160 -47q-14 -78 -63.5 -158.5t-107 -145t-113.5 -125t-94 -117t-38 -101.5q0 -131 137 -131q31 0 65.5 9t54 17.5t64.5 31t60 28.5l67 -162q-233 -102 -374 -102q-160 0 -246 71.5t-86 198.5z M498 846q0 72 46 122t122 50q68 0 103.5 -39t35.5 -105q0 -72 -46 -122t-120 -50q-141 0 -141 144z" />
<glyph unicode="&#xc0;" horiz-adv-x="1167" d="M-82 39l748 1331h188l262 -1370h-252l-57 369h-461l-192 -385zM352 1726q35 92 125 160q59 -80 150.5 -158.5t152.5 -117.5l62 -41l-74 -111q-33 10 -84 30.5t-162.5 90.5t-169.5 147zM430 539h350q-37 246 -69 544q-233 -451 -281 -544z" />
<glyph unicode="&#xc1;" horiz-adv-x="1167" d="M-82 39l748 1331h188l262 -1370h-252l-57 369h-461l-192 -385zM430 539h350q-37 246 -69 544q-233 -451 -281 -544zM676 1579q236 221 418 307q88 -86 102 -162q-76 -33 -188.5 -98t-186.5 -115l-73 -51z" />
<glyph unicode="&#xc2;" horiz-adv-x="1167" d="M-82 39l748 1331h188l262 -1370h-252l-57 369h-461l-192 -385zM403 1563q256 221 441 307q63 -74 144 -154t130 -123l49 -41l-73 -112q-160 72 -293 192l-326 -188zM430 539h350q-37 246 -69 544q-233 -451 -281 -544z" />
<glyph unicode="&#xc3;" horiz-adv-x="1167" d="M-82 39l748 1331h188l262 -1370h-252l-57 369h-461l-192 -385zM430 539h350q-37 246 -69 544q-233 -451 -281 -544zM467 1548l33 164q80 49 174 49q51 0 156.5 -21.5t154.5 -21.5q43 0 86 7.5t66 15.5l22 8l-33 -164q-80 -49 -176 -49q-49 0 -154.5 21.5t-156.5 21.5 q-41 0 -84 -7t-66 -16z" />
<glyph unicode="&#xc4;" horiz-adv-x="1167" d="M-82 39l748 1331h188l262 -1370h-252l-57 369h-461l-192 -385zM430 539h350q-37 246 -69 544q-233 -451 -281 -544zM494 1622q0 57 36 98t97 41q115 0 114 -121q0 -55 -36.5 -95t-98.5 -40q-113 0 -112 117zM881 1622q0 57 36 98t97 41q115 0 114 -121q0 -55 -36.5 -95 t-98.5 -40q-113 0 -112 117z" />
<glyph unicode="&#xc5;" horiz-adv-x="1167" d="M-82 39l711 1264q-51 45 -51 122q0 102 68.5 178t172.5 76q74 0 117 -44t43 -115q0 -141 -113 -215l250 -1305h-252l-57 369h-461l-192 -385zM430 539h350q-37 246 -69 544q-233 -451 -281 -544zM688 1444q0 -33 18.5 -53.5t51.5 -20.5q47 0 78.5 38t31.5 93 q0 33 -19 53.5t-52 20.5q-49 0 -79 -40t-30 -91z" />
<glyph unicode="&#xc6;" horiz-adv-x="1654" d="M-92 41l911 1329h885l-35 -172h-510l-76 -393h404l-37 -170h-399l-90 -463h526v-172h-795l74 379h-358l-258 -406zM520 551h279l125 647h-9l-10 -18q-10 -16 -26.5 -45t-40 -70t-55 -93t-67.5 -110.5t-81 -131t-92 -144.5z" />
<glyph unicode="&#xc7;" horiz-adv-x="1028" d="M82 426q0 188 46 360t133 309.5t228.5 219.5t315.5 82q239 0 276 -213l-182 -82q-29 117 -133 117t-188 -74t-133.5 -189.5t-75 -242.5t-25.5 -250q0 -311 258 -311q125 0 256 47l37 -156q-139 -59 -295 -68q-10 -20 -10 -43q0 -18 23.5 -37.5t52 -34t52 -43t23.5 -65.5 q0 -104 -74.5 -152.5t-185.5 -48.5q-109 0 -194 58l59 112q68 -47 137 -47q98 0 99 56q0 27 -22.5 46t-48.5 29.5t-48.5 32t-22.5 52t33 85.5q-391 29 -391 451z" />
<glyph unicode="&#xc8;" d="M31 0l266 1370h788l-34 -172h-551l-76 -393h444l-37 -170h-440l-90 -463h567v-172h-837zM264 1726q35 92 125 160q59 -80 150.5 -158.5t152.5 -117.5l62 -41l-74 -111q-33 10 -83 30.5t-162.5 90.5t-170.5 147z" />
<glyph unicode="&#xc9;" d="M31 0l266 1370h788l-34 -172h-551l-76 -393h444l-37 -170h-440l-90 -463h567v-172h-837zM588 1579q238 221 420 307q88 -86 100 -162q-76 -33 -187.5 -98t-185.5 -115l-73 -51z" />
<glyph unicode="&#xca;" d="M31 0l266 1370h788l-34 -172h-551l-76 -393h444l-37 -170h-440l-90 -463h567v-172h-837zM315 1563q258 221 441 307q63 -74 145 -153t131 -122l49 -43l-75 -112q-160 72 -291 192l-326 -188z" />
<glyph unicode="&#xcb;" d="M31 0l266 1370h788l-34 -172h-551l-76 -393h444l-37 -170h-440l-90 -463h567v-172h-837zM406 1622q0 57 37 98t96 41q117 0 116 -121q0 -55 -37.5 -95t-99.5 -40q-113 0 -112 117zM793 1622q0 57 37 98t96 41q117 0 116 -121q0 -55 -37.5 -95t-99.5 -40q-113 0 -112 117z " />
<glyph unicode="&#xcc;" horiz-adv-x="565" d="M2 1726q35 92 125 160q59 -80 150.5 -158.5t152.5 -117.5l62 -41l-74 -111q-33 10 -83 30.5t-163 90.5t-170 147zM31 0l266 1370h238l-267 -1370h-237z" />
<glyph unicode="&#xcd;" horiz-adv-x="565" d="M31 0l266 1370h238l-267 -1370h-237zM326 1579q238 221 419 307q88 -86 101 -162q-76 -33 -187.5 -98t-185.5 -115l-74 -51z" />
<glyph unicode="&#xce;" horiz-adv-x="565" d="M31 0l266 1370h238l-267 -1370h-237zM53 1563q258 221 441 307q63 -74 144 -153t130 -122l49 -43l-74 -112q-160 72 -290 192q-70 -37 -152 -84t-129 -75l-45 -29z" />
<glyph unicode="&#xcf;" horiz-adv-x="565" d="M31 0l266 1370h238l-267 -1370h-237zM143 1622q0 57 37 98t96 41q117 0 117 -121q0 -55 -38 -95t-99 -40q-113 0 -113 117zM530 1622q0 57 37.5 98t96.5 41q117 0 116 -121q0 -55 -37.5 -95t-99.5 -40q-113 0 -113 117z" />
<glyph unicode="&#xd0;" horiz-adv-x="1325" d="M12 623l35 178h137l113 577l182 -14q152 33 314 33q449 0 448 -453q0 -215 -42 -381t-136 -297t-261 -200.5t-399 -69.5h-94t-87 1t-69.5 2t-50.5 1h-18h-53l119 623h-138zM301 180h143q147 0 255 60.5t167.5 166t87 230.5t27.5 272q0 310 -258 310q-137 0 -225 -29 l-76 -389h356l-33 -178h-358z" />
<glyph unicode="&#xd1;" horiz-adv-x="1347" d="M31 29l254 1341h184l322 -696q20 -45 63 -145.5t57 -133.5q19 167 37 273l131 712l228 -37l-254 -1345h-183l-329 704q-39 80 -117 273q-16 -178 -35 -277l-131 -706zM502 1548l33 164q80 49 176 49q49 0 154.5 -21.5t156.5 -21.5q41 0 84 7.5t65 15.5l23 8l-33 -164 q-80 -49 -174 -49q-49 0 -155.5 21.5t-155.5 21.5q-41 0 -85 -7t-67 -16z" />
<glyph unicode="&#xd2;" horiz-adv-x="1368" d="M82 426q0 190 47 361t136 308.5t237 219.5t334 82q451 0 450 -453q0 -190 -47 -361t-136 -308.5t-236.5 -219.5t-334.5 -82q-451 0 -450 453zM344 463q0 -311 258 -311q104 0 188 73.5t133.5 189t75 243.5t25.5 251q0 310 -258 310q-104 0 -188 -74t-133.5 -189.5 t-75 -242.5t-25.5 -250zM406 1726q33 92 124 160q59 -80 150.5 -158.5t153.5 -117.5l61 -41l-76 -111q-33 10 -83 30.5t-161.5 90.5t-168.5 147z" />
<glyph unicode="&#xd3;" horiz-adv-x="1368" d="M82 426q0 190 47 361t136 308.5t237 219.5t334 82q451 0 450 -453q0 -190 -47 -361t-136 -308.5t-236.5 -219.5t-334.5 -82q-451 0 -450 453zM344 463q0 -311 258 -311q104 0 188 73.5t133.5 189t75 243.5t25.5 251q0 310 -258 310q-104 0 -188 -74t-133.5 -189.5 t-75 -242.5t-25.5 -250zM727 1579q238 221 420 307q88 -86 102 -162q-76 -33 -188.5 -98t-186.5 -115l-73 -51z" />
<glyph unicode="&#xd4;" horiz-adv-x="1368" d="M82 426q0 190 47 361t136 308.5t237 219.5t334 82q451 0 450 -453q0 -190 -47 -361t-136 -308.5t-236.5 -219.5t-334.5 -82q-451 0 -450 453zM344 463q0 -311 258 -311q104 0 188 73.5t133.5 189t75 243.5t25.5 251q0 310 -258 310q-104 0 -188 -74t-133.5 -189.5 t-75 -242.5t-25.5 -250zM455 1563q258 221 442 307q63 -74 144 -154t130 -123l50 -41l-76 -112q-160 72 -291 192l-326 -188z" />
<glyph unicode="&#xd5;" horiz-adv-x="1368" d="M82 426q0 190 47 361t136 308.5t237 219.5t334 82q451 0 450 -453q0 -190 -47 -361t-136 -308.5t-236.5 -219.5t-334.5 -82q-451 0 -450 453zM344 463q0 -311 258 -311q104 0 188 73.5t133.5 189t75 243.5t25.5 251q0 310 -258 310q-104 0 -188 -74t-133.5 -189.5 t-75 -242.5t-25.5 -250zM518 1548l33 164q80 49 176 49q49 0 154.5 -21.5t156.5 -21.5q41 0 84 7.5t66 15.5l22 8l-30 -164q-82 -49 -176 -49q-49 0 -155 21.5t-157 21.5q-41 0 -85 -7t-66 -16z" />
<glyph unicode="&#xd6;" horiz-adv-x="1368" d="M82 426q0 190 47 361t136 308.5t237 219.5t334 82q451 0 450 -453q0 -190 -47 -361t-136 -308.5t-236.5 -219.5t-334.5 -82q-451 0 -450 453zM344 463q0 -311 258 -311q104 0 188 73.5t133.5 189t75 243.5t25.5 251q0 310 -258 310q-104 0 -188 -74t-133.5 -189.5 t-75 -242.5t-25.5 -250zM545 1622q0 57 37 98t96 41q117 0 117 -121q0 -55 -38 -95t-100 -40q-113 0 -112 117zM932 1622q0 57 37 98t98 41q115 0 115 -121q0 -55 -38 -95t-97 -40q-115 0 -115 117z" />
<glyph unicode="&#xd7;" horiz-adv-x="1044" d="M82 338l321 276l-210 267l149 123l207 -265l309 269l105 -136l-308 -268l217 -276l-149 -121l-213 270l-322 -274z" />
<glyph unicode="&#xd8;" horiz-adv-x="1368" d="M82 426q0 190 47 361t136 308.5t237 219.5t334 82q68 0 143 -15l80 138l174 -95l-74 -127q127 -115 127 -354q0 -190 -47 -361t-136 -308.5t-236.5 -219.5t-334.5 -82q-68 0 -143 15l-80 -138l-174 95l74 127q-127 109 -127 354zM344 301l537 913q-43 8 -115 9 q-104 0 -188 -75t-133.5 -190.5t-75 -244.5t-25.5 -252v-160zM487 156q43 -8 115 -9q104 0 188 75t133.5 191.5t75 246.5t25.5 253l-2 156z" />
<glyph unicode="&#xd9;" horiz-adv-x="1335" d="M92 362q0 68 17 150l165 858h238l-164 -840q-12 -68 -12 -120q0 -123 62.5 -190.5t172.5 -67.5q129 0 214 102t118 276l164 840h238l-166 -858q-45 -236 -198 -382t-429 -146q-219 0 -319.5 102t-100.5 276zM387 1726q33 92 125 160q59 -80 150.5 -158.5t152.5 -117.5 l62 -41l-76 -111q-33 10 -83 30.5t-162 90.5t-169 147z" />
<glyph unicode="&#xda;" horiz-adv-x="1335" d="M92 362q0 68 17 150l165 858h238l-164 -840q-12 -68 -12 -120q0 -123 62.5 -190.5t172.5 -67.5q129 0 214 102t118 276l164 840h238l-166 -858q-45 -236 -198 -382t-429 -146q-219 0 -319.5 102t-100.5 276zM709 1579q238 221 419 307q88 -86 103 -162 q-76 -33 -188.5 -98t-186.5 -115l-74 -51z" />
<glyph unicode="&#xdb;" horiz-adv-x="1335" d="M92 362q0 68 17 150l165 858h238l-164 -840q-12 -68 -12 -120q0 -123 62.5 -190.5t172.5 -67.5q129 0 214 102t118 276l164 840h238l-166 -858q-45 -236 -198 -382t-429 -146q-219 0 -319.5 102t-100.5 276zM436 1563q258 221 443 307q63 -74 144 -154t130 -123l49 -41 l-76 -112q-160 72 -290 192l-326 -188z" />
<glyph unicode="&#xdc;" horiz-adv-x="1335" d="M92 362q0 68 17 150l165 858h238l-164 -840q-12 -68 -12 -120q0 -123 62.5 -190.5t172.5 -67.5q129 0 214 102t118 276l164 840h238l-166 -858q-45 -236 -198 -382t-429 -146q-219 0 -319.5 102t-100.5 276zM526 1622q0 57 37 98t96 41q117 0 117 -121q0 -55 -38 -95 t-99 -40q-113 0 -113 117zM913 1622q0 57 37.5 98t98.5 41q115 0 114 -121q0 -55 -38 -95t-97 -40q-115 0 -115 117z" />
<glyph unicode="&#xdd;" horiz-adv-x="940" d="M82 1370h242l135 -530q147 350 459 563l143 -115q-233 -223 -320 -334q-219 -279 -260 -655q-10 -104 -10 -221v-78h-235v82q0 262 90 481zM492 1579q238 221 419 307q88 -86 101 -162q-76 -33 -187.5 -98t-185.5 -115l-74 -51z" />
<glyph unicode="&#xde;" horiz-adv-x="1093" d="M31 0l258 1370h235l-49 -252q106 10 168 10q205 0 306.5 -85t101.5 -236q0 -240 -169 -383t-444 -143h-119l-53 -281h-235zM350 461h137q137 0 221.5 87t84.5 218q0 188 -213 188q-61 0 -138 -14z" />
<glyph unicode="&#xdf;" horiz-adv-x="1087" d="M-266 -301q143 66 211.5 134.5t91.5 193.5l182 954q43 221 176 358.5t381 137.5q152 0 226.5 -61.5t74.5 -164.5q0 -74 -31.5 -135t-77.5 -100t-91.5 -72t-77 -69.5t-31.5 -77.5q0 -47 36 -93.5t78 -79t77.5 -94t35.5 -135.5q0 -176 -121.5 -292.5t-312.5 -116.5 q-125 0 -227 71l82 158q84 -53 180 -53q78 0 120 46t42 120q0 43 -21.5 78.5t-53.5 65.5t-63.5 62.5t-53 81t-21.5 109.5q0 76 30.5 136.5t75.5 100t90 74.5t76 75t31 85q0 113 -141 113q-197 0 -258 -314l-187 -946q-20 -106 -59 -185t-104.5 -137.5t-125 -95.5t-161.5 -88 z" />
<glyph unicode="&#xe0;" horiz-adv-x="1081" d="M61 322q0 301 154 499.5t422 198.5q131 0 244 -49l129 -8l-92 -478q-20 -109 -21 -190q0 -131 74 -242l-185 -73q-70 80 -69 202q0 39 14 164l-35 -82q-122 -280 -362 -280q-137 0 -205 98t-68 240zM274 1452q53 82 158 125q41 -90 111.5 -186.5t122.5 -149.5l51 -51 l-99 -92q-29 18 -73.5 49t-138 124t-132.5 181zM305 313q0 -88 26 -124.5t79 -36.5q94 0 187 181t132 367l29 142q-41 20 -117 20q-88 0 -155.5 -51t-105.5 -135t-56.5 -176t-18.5 -187z" />
<glyph unicode="&#xe1;" horiz-adv-x="1081" d="M61 322q0 301 154 499.5t422 198.5q131 0 244 -49l129 -8l-92 -478q-20 -109 -21 -190q0 -131 74 -242l-185 -73q-70 80 -69 202q0 39 14 164l-35 -82q-122 -280 -362 -280q-137 0 -205 98t-68 240zM305 313q0 -88 26 -124.5t79 -36.5q94 0 187 181t132 367l29 142 q-41 20 -117 20q-88 0 -155.5 -51t-105.5 -135t-56.5 -176t-18.5 -187zM555 1202q193 258 358 375q100 -70 127 -141q-70 -45 -168 -130t-161 -147l-64 -63z" />
<glyph unicode="&#xe2;" horiz-adv-x="1081" d="M61 322q0 301 154 499.5t422 198.5q131 0 244 -49l129 -8l-92 -478q-20 -109 -21 -190q0 -131 74 -242l-185 -73q-70 80 -69 202q0 39 14 164l-35 -82q-122 -280 -362 -280q-137 0 -205 98t-68 240zM305 313q0 -88 26 -124.5t79 -36.5q94 0 187 181t132 367l29 142 q-41 20 -117 20q-88 0 -155.5 -51t-105.5 -135t-56.5 -176t-18.5 -187zM311 1210q244 268 408 383q53 -80 123.5 -177t115.5 -154l46 -56l-99 -92q-133 80 -239 197l-252 -199z" />
<glyph unicode="&#xe3;" horiz-adv-x="1081" d="M61 322q0 301 154 499.5t422 198.5q131 0 244 -49l129 -8l-92 -478q-20 -109 -21 -190q0 -131 74 -242l-185 -73q-70 80 -69 202q0 39 14 164l-35 -82q-122 -280 -362 -280q-137 0 -205 98t-68 240zM305 313q0 -88 26 -124.5t79 -36.5q94 0 187 181t132 367l29 142 q-41 20 -117 20q-88 0 -155.5 -51t-105.5 -135t-56.5 -176t-18.5 -187zM352 1206l31 152q74 47 164 47q49 0 149.5 -20.5t147.5 -20.5q41 0 82 7t61 13l21 9l-31 -152q-76 -47 -164 -47q-47 0 -149.5 20.5t-149.5 20.5q-41 0 -81 -7t-60 -16z" />
<glyph unicode="&#xe4;" horiz-adv-x="1081" d="M61 322q0 301 154 499.5t422 198.5q131 0 244 -49l129 -8l-92 -478q-20 -109 -21 -190q0 -131 74 -242l-185 -73q-70 80 -69 202q0 39 14 164l-35 -82q-122 -280 -362 -280q-137 0 -205 98t-68 240zM305 313q0 -88 26 -124.5t79 -36.5q94 0 187 181t132 367l29 142 q-41 20 -117 20q-88 0 -155.5 -51t-105.5 -135t-56.5 -176t-18.5 -187zM358 1272q0 57 37.5 98t98.5 41q115 0 114 -121q0 -55 -36.5 -95t-98.5 -40q-115 0 -115 117zM748 1272q0 57 36 98t97 41q115 0 114 -121q0 -55 -36.5 -95t-98.5 -40q-113 0 -112 117z" />
<glyph unicode="&#xe5;" horiz-adv-x="1064" d="M131 322q0 301 153.5 499.5t422.5 198.5q131 0 243 -49l127 -8l-92 -478q-20 -109 -20 -190q0 -127 75 -242l-186 -73q-70 80 -70 202q0 20 17 164l-37 -82q-123 -280 -361 -280q-137 0 -204.5 98t-67.5 240zM375 313q0 -88 25.5 -124.5t78.5 -36.5q63 0 133 97t117 218 t70 233l28 142q-41 20 -116 20q-88 0 -156 -51t-105.5 -135t-56 -176t-18.5 -187zM590 1270q0 102 68.5 178t172.5 76q74 0 117 -44t43 -114q0 -102 -68.5 -178t-174.5 -76q-72 0 -115 44t-43 114zM700 1288q0 -33 18.5 -53.5t51.5 -20.5q47 0 79 39t32 95q0 33 -19.5 53 t-52.5 20q-49 0 -79 -40t-30 -93z" />
<glyph unicode="&#xe6;" horiz-adv-x="1542" d="M61 322q0 301 154 499.5t422 198.5q80 0 165 -22.5t138 -59.5q129 90 299 90q295 0 295 -221q0 -174 -171 -290t-443 -132q-12 -61 -13 -72q0 -170 148 -170q49 0 127 20.5t133 41.5l53 22l47 -147q-207 -102 -405 -103q-283 0 -334 248q-119 -241 -342 -241 q-137 0 -205 98t-68 240zM305 313q0 -88 26 -124.5t79 -36.5q94 0 187 181t132 367l29 142q-41 20 -117 20q-88 0 -155.5 -51t-105.5 -135t-56.5 -176t-18.5 -187zM936 532q168 10 267.5 84t99.5 154q0 100 -111 100q-88 0 -156.5 -99t-99.5 -239z" />
<glyph unicode="&#xe7;" horiz-adv-x="833" d="M61 319q0 301 153 505t419 204q188 0 239 -197l-170 -73q-2 4 -9 21.5t-10 22.5t-10 18.5t-14.5 17.5t-17.5 12t-24.5 10t-30.5 2q-84 0 -150.5 -91t-98.5 -214t-32 -244q0 -170 146 -170q33 0 90 13.5t98 27t45 15.5l49 -148q-94 -47 -239 -67q-14 -27 -15 -52 q0 -18 23.5 -37.5t52.5 -34t52.5 -43t23.5 -65.5q0 -104 -75 -152.5t-185 -48.5q-109 0 -195 58l60 112q68 -47 137 -47q98 0 98 56q0 27 -22.5 46t-48 29.5t-48 32t-22.5 51.5q0 33 35 91q-160 10 -232 105t-72 234z" />
<glyph unicode="&#xe8;" horiz-adv-x="937" d="M61 319q0 303 153 506t419 203q295 0 295 -221q0 -176 -174 -292t-451 -130q-2 -25 -2 -72q0 -170 150 -170q47 0 124.5 20.5t133.5 41.5l53 22l47 -147q-207 -102 -406 -103q-180 0 -261 97.5t-81 244.5zM276 1460q53 82 158 125q41 -90 111.5 -186t122.5 -150l51 -51 l-98 -92q-29 18 -74 49t-138.5 124t-132.5 181zM328 532q170 10 269 84t99 154q1 100 -110 100q-90 0 -157 -96t-101 -242z" />
<glyph unicode="&#xe9;" horiz-adv-x="937" d="M61 319q0 303 153 506t419 203q295 0 295 -221q0 -176 -174 -292t-451 -130q-2 -25 -2 -72q0 -170 150 -170q47 0 124.5 20.5t133.5 41.5l53 22l47 -147q-207 -102 -406 -103q-180 0 -261 97.5t-81 244.5zM328 532q170 10 269 84t99 154q1 100 -110 100q-90 0 -157 -96 t-101 -242zM545 1210q193 258 356 375q102 -70 127 -141q-68 -45 -166 -130t-162 -147l-63 -63z" />
<glyph unicode="&#xea;" horiz-adv-x="937" d="M61 319q0 303 153 506t419 203q295 0 295 -221q0 -176 -174 -292t-451 -130q-2 -25 -2 -72q0 -170 150 -170q47 0 124.5 20.5t133.5 41.5l53 22l47 -147q-207 -102 -406 -103q-180 0 -261 97.5t-81 244.5zM311 1219q244 268 410 383q51 -80 121.5 -177.5t115.5 -154.5 l46 -56l-99 -92q-131 80 -237 197l-252 -199zM328 532q170 10 269 84t99 154q1 100 -110 100q-90 0 -157 -96t-101 -242z" />
<glyph unicode="&#xeb;" horiz-adv-x="937" d="M61 319q0 303 153 506t419 203q295 0 295 -221q0 -176 -174 -292t-451 -130q-2 -25 -2 -72q0 -170 150 -170q47 0 124.5 20.5t133.5 41.5l53 22l47 -147q-207 -102 -406 -103q-180 0 -261 97.5t-81 244.5zM328 532q170 10 269 84t99 154q1 100 -110 100q-90 0 -157 -96 t-101 -242zM360 1280q0 57 37.5 98t96.5 41q117 0 116 -121q0 -55 -37.5 -95t-99.5 -40q-113 0 -113 117zM748 1280q0 57 37 98t98 41q115 0 114 -121q0 -55 -37.5 -95t-97.5 -40q-115 0 -114 117z" />
<glyph unicode="&#xec;" horiz-adv-x="561" d="M72 162q0 29 6 59l155 783h226l-148 -762q-4 -25 -4 -33q0 -51 35 -51q20 0 47 4t41 8l16 4v-147q-75 -37 -184 -37q-90 0 -140 46t-50 126zM96 1475q63 59 168 102l191 -406l-107 -73q-164 176 -252 377z" />
<glyph unicode="&#xed;" horiz-adv-x="561" d="M72 162q0 29 6 59l155 783h226l-148 -762q-4 -25 -4 -33q0 -51 35 -51q20 0 47 4t41 8l16 4v-147q-75 -37 -184 -37q-90 0 -140 46t-50 126zM250 1171q14 31 38.5 79t101.5 157t155 170q98 -37 141 -127q-59 -47 -141 -135t-135 -154l-52 -65z" />
<glyph unicode="&#xee;" horiz-adv-x="561" d="M72 162q0 29 6 59l155 783h226l-148 -762q-4 -25 -4 -33q0 -51 35 -51q20 0 47 4t41 8l16 4v-147q-75 -37 -184 -37q-90 0 -140 46t-50 126zM86 1161q203 252 369 400q49 -86 96 -188.5t72 -160.5l22 -59l-106 -72q-70 76 -142 179q-45 -41 -99 -86.5t-85 -69.5l-33 -25z " />
<glyph unicode="&#xef;" horiz-adv-x="561" d="M72 162q0 29 6 59l155 783h226l-148 -762q-4 -25 -4 -33q0 -51 35 -51q20 0 47 4t41 8l16 4v-147q-75 -37 -184 -37q-90 0 -140 46t-50 126zM125 1311q0 51 34 88t89 37q111 0 110 -111q0 -51 -35.5 -89t-91.5 -38q-106 0 -106 113zM461 1311q0 49 35 87t90 38 q111 0 110 -111q0 -51 -35.5 -89t-89.5 -38q-111 0 -110 113z" />
<glyph unicode="&#xf0;" horiz-adv-x="1083" d="M61 319q0 303 154 506t420 203q70 0 164 -53q-18 68 -64 164l-235 -68l-37 146l182 45l-102 96l137 129q115 -82 174 -174l227 57l33 -145l-190 -41q69 -164 69 -404q0 -137 -30.5 -271t-96 -257t-185.5 -199t-278 -76q-180 0 -261 97.5t-81 244.5zM305 305 q0 -170 146 -170q84 0 151.5 96.5t98 223.5t30.5 245q0 170 -145 170q-84 0 -151.5 -95t-98.5 -222t-31 -248z" />
<glyph unicode="&#xf1;" horiz-adv-x="1128" d="M74 0l104 516q23 111 23 203q0 145 -51 231l186 74q53 -63 53 -174q0 -25 -18 -193l35 82q123 281 380 281q131 0 196 -65.5t65 -184.5q0 -115 -67 -307.5t-67 -265.5q0 -115 19 -197h-230q-8 45 -8 123q0 111 60.5 311.5t60.5 284.5q0 117 -110 117q-104 0 -205 -164 t-135 -346l-64 -326h-227zM479 1206l29 152q76 47 166 47q49 0 148.5 -20.5t148.5 -20.5q41 0 82 7t61 13l21 9l-31 -152q-76 -47 -166 -47q-49 0 -149.5 20.5t-147.5 20.5q-41 0 -81 -7t-60 -16z" />
<glyph unicode="&#xf2;" d="M61 319q0 303 153 506t419 203q180 0 261 -97t81 -245q0 -305 -151.5 -507t-420.5 -202q-180 0 -261 97.5t-81 244.5zM274 1460q53 82 158 125q41 -90 111.5 -186t122.5 -150l51 -51l-99 -92q-29 18 -73.5 49t-138 124t-132.5 181zM305 305q0 -170 146 -170 q84 0 151.5 96.5t98 223.5t30.5 245q0 170 -145 170q-84 0 -151.5 -95t-98.5 -222t-31 -248z" />
<glyph unicode="&#xf3;" d="M61 319q0 303 153 506t419 203q180 0 261 -97t81 -245q0 -305 -151.5 -507t-420.5 -202q-180 0 -261 97.5t-81 244.5zM305 305q0 -170 146 -170q84 0 151.5 96.5t98 223.5t30.5 245q0 170 -145 170q-84 0 -151.5 -95t-98.5 -222t-31 -248zM555 1210q193 258 356 375 q102 -70 129 -141q-70 -45 -168 -130t-161 -147l-64 -63z" />
<glyph unicode="&#xf4;" d="M61 319q0 303 153 506t419 203q180 0 261 -97t81 -245q0 -305 -151.5 -507t-420.5 -202q-180 0 -261 97.5t-81 244.5zM305 305q0 -170 146 -170q84 0 151.5 96.5t98 223.5t30.5 245q0 170 -145 170q-84 0 -151.5 -95t-98.5 -222t-31 -248zM311 1219q242 268 408 383 q51 -80 121.5 -177.5t115.5 -154.5l45 -56l-98 -92q-131 80 -237 197l-252 -199z" />
<glyph unicode="&#xf5;" d="M61 319q0 303 153 506t419 203q180 0 261 -97t81 -245q0 -305 -151.5 -507t-420.5 -202q-180 0 -261 97.5t-81 244.5zM305 305q0 -170 146 -170q84 0 151.5 96.5t98 223.5t30.5 245q0 170 -145 170q-84 0 -151.5 -95t-98.5 -222t-31 -248zM352 1214l29 152q76 47 166 47 q47 0 147.5 -20.5t149.5 -20.5q41 0 82 7t61 14l21 8l-31 -152q-76 -47 -166 -47q-49 0 -149.5 20.5t-147.5 20.5q-41 0 -81 -7t-60 -15z" />
<glyph unicode="&#xf6;" d="M61 319q0 303 153 506t419 203q180 0 261 -97t81 -245q0 -305 -151.5 -507t-420.5 -202q-180 0 -261 97.5t-81 244.5zM305 305q0 -170 146 -170q84 0 151.5 96.5t98 223.5t30.5 245q0 170 -145 170q-84 0 -151.5 -95t-98.5 -222t-31 -248zM358 1280q0 57 37.5 98t96.5 41 q117 0 116 -121q0 -55 -38 -95t-99 -40q-113 0 -113 117zM745 1280q0 57 37.5 98t98.5 41q115 0 114 -121q0 -55 -37.5 -95t-97.5 -40q-115 0 -115 117z" />
<glyph unicode="&#xf7;" horiz-adv-x="1075" d="M115 520l35 180h790l-31 -180h-794zM342 254q0 57 35 95t94 38q109 0 109 -111q0 -55 -36 -93t-93 -38q-53 0 -81 30t-28 79zM469 930q0 55 36 94t95 39q106 0 107 -111q0 -55 -35 -93t-92 -38q-111 0 -111 109z" />
<glyph unicode="&#xf8;" d="M61 319q0 303 153 506t419 203q66 0 125 -16l82 123l131 -88l-78 -117q82 -88 82 -244q0 -305 -151.5 -507t-420.5 -202q-68 0 -127 17l-79 -123l-131 88l75 117q-80 88 -80 243zM295 305l369 561q-35 8 -78 8q-84 0 -154 -96t-103.5 -224t-33.5 -249zM371 137 q43 -6 80 -6q84 0 153.5 96.5t103 224.5t33.5 246z" />
<glyph unicode="&#xf9;" horiz-adv-x="1118" d="M72 233q0 111 67.5 304.5t67.5 287.5q0 100 -12 144l194 49q39 -80 39 -207q0 -96 -61.5 -267t-61.5 -259q0 -117 111 -117q104 0 203.5 163t134.5 347l63 326h230l-109 -517q-23 -111 -23 -190q0 -133 76 -244l-186 -73q-70 80 -70 202q0 43 15 164l-35 -82 q-123 -281 -383 -280q-131 0 -195.5 65.5t-64.5 183.5zM291 1452q53 82 158 125q41 -90 111.5 -186.5t121.5 -149.5l51 -51l-98 -92q-29 18 -74 49t-138 124t-132 181z" />
<glyph unicode="&#xfa;" horiz-adv-x="1118" d="M72 233q0 111 67.5 304.5t67.5 287.5q0 100 -12 144l194 49q39 -80 39 -207q0 -96 -61.5 -267t-61.5 -259q0 -117 111 -117q104 0 203.5 163t134.5 347l63 326h230l-109 -517q-23 -111 -23 -190q0 -133 76 -244l-186 -73q-70 80 -70 202q0 43 15 164l-35 -82 q-123 -281 -383 -280q-131 0 -195.5 65.5t-64.5 183.5zM571 1202q193 258 357 375q102 -70 129 -141q-70 -45 -168 -130t-162 -147l-63 -63z" />
<glyph unicode="&#xfb;" horiz-adv-x="1118" d="M72 233q0 111 67.5 304.5t67.5 287.5q0 100 -12 144l194 49q39 -80 39 -207q0 -96 -61.5 -267t-61.5 -259q0 -117 111 -117q104 0 203.5 163t134.5 347l63 326h230l-109 -517q-23 -111 -23 -190q0 -133 76 -244l-186 -73q-70 80 -70 202q0 43 15 164l-35 -82 q-123 -281 -383 -280q-131 0 -195.5 65.5t-64.5 183.5zM328 1210q242 268 407 383q53 -80 124 -177t116 -154l43 -56l-98 -92q-131 80 -238 197l-252 -199z" />
<glyph unicode="&#xfc;" horiz-adv-x="1118" d="M72 233q0 111 67.5 304.5t67.5 287.5q0 100 -12 144l194 49q39 -80 39 -207q0 -96 -61.5 -267t-61.5 -259q0 -117 111 -117q104 0 203.5 163t134.5 347l63 326h230l-109 -517q-23 -111 -23 -190q0 -133 76 -244l-186 -73q-70 80 -70 202q0 43 15 164l-35 -82 q-123 -281 -383 -280q-131 0 -195.5 65.5t-64.5 183.5zM375 1272q0 57 37 98t98 41q115 0 115 -121q0 -55 -38 -95t-98 -40q-115 0 -114 117zM762 1272q0 57 37 98t98 41q115 0 115 -121q0 -55 -38 -95t-97 -40q-115 0 -115 117z" />
<glyph unicode="&#xfd;" horiz-adv-x="1118" d="M72 233q0 111 66.5 304.5t66.5 287.5q0 96 -10 144l194 49q39 -80 39 -207q0 -96 -61.5 -267t-61.5 -259q0 -117 111 -117q102 0 202.5 163t135.5 347l63 326h230l-91 -414q-43 -221 -43 -291t16.5 -181.5t16.5 -172.5q0 -215 -111.5 -307.5t-322.5 -92.5 q-164 0 -420 123l80 172q4 -2 62.5 -26.5t80 -31.5t68.5 -23.5t85 -22.5t73 -6q92 0 147 60t55 151q0 14 -4 88.5t-4 154.5q0 29 8.5 95.5t8.5 70.5l-39 -86q-119 -281 -381 -280q-131 0 -195.5 65.5t-64.5 183.5zM571 1202q193 258 359 375q100 -70 127 -141 q-70 -45 -168 -130t-162 -147l-63 -63z" />
<glyph unicode="&#xfe;" horiz-adv-x="1075" d="M-31 -455l369 1899l231 41l-63 -346q-20 -109 -94 -332q121 213 329 213q137 0 205 -98.5t68 -239.5q0 -301 -153.5 -499.5t-422.5 -198.5q-72 0 -155 18l-82 -416zM313 162q59 -20 121 -21q86 0 153.5 52.5t105.5 135.5t57.5 175t19.5 186q0 88 -25.5 125t-78.5 37 q-96 0 -186 -188.5t-156 -458.5z" />
<glyph unicode="&#xff;" horiz-adv-x="1118" d="M72 233q0 111 66.5 304.5t66.5 287.5q0 96 -10 144l194 49q39 -80 39 -207q0 -96 -61.5 -267t-61.5 -259q0 -117 111 -117q102 0 202.5 163t135.5 347l63 326h230l-91 -414q-43 -221 -43 -291t16.5 -181.5t16.5 -172.5q0 -215 -111.5 -307.5t-322.5 -92.5 q-164 0 -420 123l80 172q4 -2 62.5 -26.5t80 -31.5t68.5 -23.5t85 -22.5t73 -6q92 0 147 60t55 151q0 14 -4 88.5t-4 154.5q0 29 8.5 95.5t8.5 70.5l-39 -86q-119 -281 -381 -280q-131 0 -195.5 65.5t-64.5 183.5zM375 1272q0 57 37 98t98 41q115 0 115 -121q0 -55 -38 -95 t-98 -40q-115 0 -114 117zM762 1272q0 57 37 98t98 41q115 0 115 -121q0 -55 -38 -95t-97 -40q-115 0 -115 117z" />
<glyph unicode="&#x152;" horiz-adv-x="1671" d="M82 426q0 190 46 360t136 306.5t237.5 217.5t334.5 81q82 0 147 -21h739l-36 -172h-508l-76 -393h403l-37 -170h-399l-90 -463h526v-172h-788q-94 -27 -185 -27q-451 0 -450 453zM344 463q0 -311 258 -311q72 0 139 18l203 1030q-115 18 -178 19q-104 0 -188 -74 t-133.5 -189.5t-75 -242.5t-25.5 -250z" />
<glyph unicode="&#x153;" horiz-adv-x="1574" d="M61 319q0 303 153 506t419 203q213 0 272 -158q141 158 367 158q295 0 295 -221q0 -176 -174 -292t-451 -130q-2 -25 -2 -72q0 -170 150 -170q47 0 124.5 20.5t133.5 41.5l53 22l47 -147q-207 -102 -406 -103q-213 0 -276 154q-137 -154 -363 -154q-180 0 -261 97.5 t-81 244.5zM305 305q0 -170 146 -170q84 0 151.5 96.5t98 223.5t30.5 245q0 170 -145 170q-84 0 -151.5 -95t-98.5 -222t-31 -248zM967 532q170 10 269 84t99 154q1 100 -110 100q-90 0 -157 -96t-101 -242z" />
<glyph unicode="&#x178;" horiz-adv-x="940" d="M82 1370h242l135 -530q147 350 459 563l143 -115q-233 -223 -320 -334q-219 -279 -260 -655q-10 -104 -10 -221v-78h-235v82q0 262 90 481zM309 1622q0 57 37 98t98 41q115 0 115 -121q0 -55 -38 -95t-97 -40q-115 0 -115 117zM696 1622q0 57 37 98t98 41q115 0 115 -121 q0 -55 -38 -95t-97 -40q-115 0 -115 117z" />
<glyph unicode="&#x2c6;" horiz-adv-x="980" d="M139 1194q244 268 408 383q53 -80 123.5 -177t115.5 -155l45 -55l-98 -92q-131 80 -237 196l-254 -198z" />
<glyph unicode="&#x2dc;" horiz-adv-x="983" d="M164 1206l31 152q76 47 165 47q49 0 149.5 -20.5t147.5 -20.5q41 0 81 7t61 13l20 9l-28 -152q-76 -47 -166 -47q-47 0 -147.5 20.5t-149.5 20.5q-41 0 -82 -7t-62 -16z" />
<glyph unicode="&#x2000;" horiz-adv-x="943" />
<glyph unicode="&#x2001;" horiz-adv-x="1886" />
<glyph unicode="&#x2002;" horiz-adv-x="943" />
<glyph unicode="&#x2003;" horiz-adv-x="1886" />
<glyph unicode="&#x2004;" horiz-adv-x="628" />
<glyph unicode="&#x2005;" horiz-adv-x="471" />
<glyph unicode="&#x2006;" horiz-adv-x="314" />
<glyph unicode="&#x2007;" horiz-adv-x="314" />
<glyph unicode="&#x2008;" horiz-adv-x="235" />
<glyph unicode="&#x2009;" horiz-adv-x="377" />
<glyph unicode="&#x200a;" horiz-adv-x="104" />
<glyph unicode="&#x2010;" horiz-adv-x="757" d="M82 561l35 170h559l-33 -170h-561z" />
<glyph unicode="&#x2011;" horiz-adv-x="757" d="M82 561l35 170h559l-33 -170h-561z" />
<glyph unicode="&#x2012;" horiz-adv-x="757" d="M82 561l35 170h559l-33 -170h-561z" />
<glyph unicode="&#x2013;" horiz-adv-x="993" d="M-33 569l33 168h993l-32 -168h-994z" />
<glyph unicode="&#x2014;" horiz-adv-x="1386" d="M-33 569l33 168h1386l-32 -168h-1387z" />
<glyph unicode="&#x2018;" horiz-adv-x="509" d="M174 997q0 139 112.5 276.5t243.5 201.5l68 -113q-184 -123 -184 -305q0 -82 6 -133q-43 -37 -137 -37q-109 0 -109 110z" />
<glyph unicode="&#x2019;" horiz-adv-x="509" d="M176 1012q184 123 184 303q0 82 -6 135q45 37 140 37q109 0 108 -111q0 -139 -113.5 -277t-244.5 -200z" />
<glyph unicode="&#x201a;" horiz-adv-x="612" d="M-29 -188q185 123 185 303q0 82 -6 135q45 37 139 37q109 0 108 -111q0 -139 -112.5 -276.5t-245.5 -200.5z" />
<glyph unicode="&#x201c;" horiz-adv-x="907" d="M174 997q0 139 112.5 276.5t243.5 201.5l68 -113q-184 -123 -184 -305q0 -82 6 -133q-43 -37 -137 -37q-109 0 -109 110zM569 997q0 139 113 276.5t244 201.5l69 -113q-184 -123 -184 -305q0 -82 6 -133q-45 -37 -139 -37q-109 0 -109 110z" />
<glyph unicode="&#x201d;" horiz-adv-x="907" d="M174 1012q184 123 184 303q0 82 -6 135q45 37 140 37q109 0 108 -111q0 -139 -113.5 -277t-244.5 -200zM569 1012q185 123 185 303q0 100 -4 135q43 37 137 37q109 0 108 -111q0 -139 -112.5 -277t-243.5 -200z" />
<glyph unicode="&#x201e;" horiz-adv-x="907" d="M-90 -188q184 123 184 303q0 82 -6 135q45 37 139 37q109 0 109 -111q0 -139 -112.5 -276.5t-243.5 -200.5zM305 -188q187 123 187 303q0 82 -7 135q43 37 138 37q109 0 108 -111q0 -139 -112.5 -276.5t-243.5 -200.5z" />
<glyph unicode="&#x2022;" horiz-adv-x="608" d="M84 618q0 100 62.5 169t166.5 69q96 0 145.5 -52t49.5 -147q0 -98 -63.5 -165.5t-170.5 -67.5q-94 0 -142 52t-48 142z" />
<glyph unicode="&#x202f;" horiz-adv-x="377" />
<glyph unicode="&#x2039;" horiz-adv-x="735" d="M72 502q51 55 121.5 122.5t135 123t120 101.5t89 73.5t31.5 25.5l95 -119l-324 -329q18 -29 99 -161t116 -187l-125 -97q-236 246 -358 447z" />
<glyph unicode="&#x203a;" horiz-adv-x="735" d="M74 174l321 328q-111 180 -213 350l123 96q238 -246 361 -446q-51 -55 -122 -123t-135.5 -123t-120 -101t-89 -74t-31.5 -26z" />
<glyph unicode="&#x205f;" horiz-adv-x="471" />
<glyph unicode="&#x20ac;" horiz-adv-x="1146" d="M51 381l35 178h107q6 68 20 129h-102l34 178h125q82 201 227.5 326t350.5 125t268 -180l-155 -101q-31 55 -68 79t-100 24q-180 0 -293 -273h426l-62 -178h-424q-18 -82 -22 -129h399l-61 -178h-336q18 -104 70.5 -166.5t138.5 -62.5q125 0 243 53l41 -144 q-174 -74 -360 -73q-164 0 -259 101t-108 292h-135z" />
<glyph unicode="&#x25fc;" horiz-adv-x="1013" d="M0 0v1014h1014v-1014h-1014z" />
</font>
</defs>
</svg>
